HIERARCHY
ROOT ui
{
	 OFFSET 0 0 0
	 CHANNELS 3 XPosition YPosition Z Position
	 EndSite
	 {
	 OFFSET 0 -1 0
	 }
}
ROOT li
{
	 OFFSET 0 0 0
	 CHANNELS 3 XPosition YPosition Z Position
	 EndSite
	 {
	 OFFSET 0 -1 0
	 }
}
ROOT ul
{
	 OFFSET 0 0 0
	 CHANNELS 3 XPosition YPosition Z Position
	 EndSite
	 {
	 OFFSET 0 -1 0
	 }
}
ROOT ll
{
	 OFFSET 0 0 0
	 CHANNELS 3 XPosition YPosition Z Position
	 EndSite
	 {
	 OFFSET 0 -1 0
	 }
}
ROOT tt
{
	 OFFSET 0 0 0
	 CHANNELS 3 XPosition YPosition Z Position
	 EndSite
	 {
	 OFFSET 0 -1 0
	 }
}
ROOT tb
{
	 OFFSET 0 0 0
	 CHANNELS 3 XPosition YPosition Z Position
	 EndSite
	 {
	 OFFSET 0 -1 0
	 }
}
ROOT td
{
	 OFFSET 0 0 0
	 CHANNELS 3 XPosition YPosition Z Position
	 EndSite
	 {
	 OFFSET 0 -1 0
	 }
}
ROOT v
{
	 OFFSET 0 0 0
	 CHANNELS 3 XPosition YPosition Z Position
	 EndSite
	 {
	 OFFSET 0 -1 0
	 }
}
ROOT bn
{
	 OFFSET 0 0 0
	 CHANNELS 3 XPosition YPosition Z Position
	 EndSite
	 {
	 OFFSET 0 -1 0
	 }
}
MOTION
Frames: 10
Frame Time: 0.002
0.016114660263061523	-0.0015466320514678955	0		0.5383335571289063	-2.471256103515625	0		-0.8856948852539063	0.25972821044921873	0		-0.54757421875	-2.857734375	0		1.6993203125	-0.6366023559570313	0		3.186140869140625	0.06089657974243164	0		4.39538232421875	0.15281251525878906	0		6.00632373046875	0.5387381591796875	0		-0.24721511840820312	5.90319970703125	0		
0.011401040077209473	0.0034483919143676756	0		0.5275902709960938	-2.4651953125	0		-0.86261865234375	0.24739022827148438	0		-0.5010287475585937	-2.828368896484375	0		1.7012452392578126	-0.6597216796875	0		3.179240966796875	0.050862998962402345	0		4.41489404296875	0.17543052673339843	0		6.00245703125	0.5306182250976562	0		-0.09567644500732422	5.91924853515625	0		
0.008613033294677734	-5.839530229568481E-4	0		0.516892822265625	-2.4591357421875	0		-0.9034002075195312	0.24384574890136718	0		-0.56058984375	-2.810682373046875	0		1.6893109130859374	-0.6746646118164062	0		3.17459130859375	0.057809741973876956	0		4.405171875	0.1764227294921875	0		6.0027265625	0.5304627685546875	0		-0.2276204071044922	5.89683349609375	0		
-0.017080219268798828	6.69988989830017E-4	0		0.4990851440429688	-2.46498681640625	0		-0.8913317260742187	0.22563505554199217	0		-0.5210551147460938	-2.789238037109375	0		1.7333294677734374	-0.6963034057617188	0		3.1838583984375	0.055591934204101565	0		4.4266396484375	0.19004029846191406	0		6.0030244140625	0.530327392578125	0		-0.22824031066894532	5.8987763671875	0		
0.009219209671020507	-7.26822018623352E-4	0		0.5283805541992187	-2.465424560546875	0		-0.8901290893554688	0.21655787658691406	0		-0.6134390258789062	-2.763142578125	0		1.6855299072265626	-0.7047839965820313	0		3.204334228515625	0.06824805450439453	0		4.43505419921875	0.19783894348144532	0		6.003341796875	0.5302164916992187	0		-0.2458358154296875	5.90293212890625	0		
-0.023287469863891602	0.012616005897521973	0		0.522866943359375	-2.452421142578125	0		-0.893838134765625	0.21354032897949218	0		-0.5447335205078125	-2.7330654296875	0		1.724665283203125	-0.720344482421875	0		3.20256201171875	0.06019783401489258	0		4.458744140625	0.2264701385498047	0		6.01577001953125	0.5379840698242188	0		-0.09329536437988281	5.91795703125	0		
0.009882125854492187	-8.638179898262024E-4	0		0.522172607421875	-2.45547412109375	0		-0.8975535278320312	0.20952043151855468	0		-0.6170704956054688	-2.70722216796875	0		1.7107783203125	-0.7382293701171875	0		3.22797021484375	0.06582737731933594	0		4.45701611328125	0.22144293212890626	0		6.0071162109375	0.5390492553710937	0		-0.2262574920654297	5.89655712890625	0		
0.010218975067138671	-9.292359948158264E-4	0		0.5205062866210938	-2.457509765625	0		-0.86349658203125	0.18702308654785157	0		-0.544527587890625	-2.693195556640625	0		1.749755615234375	-0.7677656860351563	0		3.237293212890625	0.06467780303955079	0		4.47744970703125	0.22916580200195313	0		6.01544775390625	0.5389366455078125	0		-0.09269524383544922	5.91782275390625	0		
-0.019483016967773437	-0.0036183719635009765	0		0.5208744506835937	-2.45756689453125	0		-0.898263427734375	0.17938442993164064	0		-0.614825439453125	-2.66638232421875	0		1.746887451171875	-0.7847666015625	0		3.228638671875	0.0657717056274414	0		4.48406640625	0.25208808898925783	0		6.00367431640625	0.5311083374023438	0		-0.25978338623046876	5.89184716796875	0		
0.010876049995422363	-0.0010581270456314087	0		0.5410692138671875	-2.4718701171875	0		-0.8930057983398437	0.1742405242919922	0		-0.5883524169921875	-2.658783935546875	0		1.7919482421875	-0.807357666015625	0		3.2428603515625	0.057595054626464845	0		4.496384765625	0.2519599304199219	0		6.0160869140625	0.5390087890625	0		-0.25662301635742185	5.88774072265625	0		
